<svg height="512" viewBox="0 0 58 57" width="512" xmlns="http://www.w3.org/2000/svg"><g id="Page-1" fill="none" fill-rule="evenodd"><g id="019---Gloves-Touching" fill-rule="nonzero" transform="translate(0 -1)"><path id="Shape" d="m51 44c-4 2-4 8.32-4 8.32s-12-12-18 4c-6-16-18-4-18-4s0-6.32-4-8.32c-5.35-2.67 2.9-23.84 2.9-23.84 3.77-3.38 2.87-10.52 1.11-14.15.44.43 12.1 11.69 17.99-4.01 5.89 15.7 17.55 4.44 17.99 4.01-1.76 3.63-2.66 10.77 1.11 14.15 0 0 8.25 21.17 2.9 23.84z" fill="#f3d55b"/><path id="Shape" d="m13.67 43.33-4.1 4.1c-.36249838.3649408-.85561991.570169-1.37.570169s-1.00750162-.2052282-1.37-.570169l-6.16-6.16c-.7497868-.7594519-.7497868-1.9805481 0-2.74l.66-.66 1.41-1.41 2.03-2.02 4.28 4.28 2.74 2.73z" fill="#e64c3c"/><path id="Shape" d="m26.45 34.63c-.5787483.5455956-1.2580045.973527-2 1.26-2.83 1.14-6.42.33-9.13-1.63-3.41-2.47-5.43-6.76-2.82-11.31.3960245-.7096743.8688645-1.3736624 1.41-1.98 1.6937248-2.1112282 4.5986572-2.8138356 7.07-1.71 1.7150844.7251442 3.2635452 1.7937524 4.55 3.14 1.1776157 1.1175427 2.1283532 2.4519706 2.8 3.93 1.01 2.33 1.24 5.39-1.88 8.3z" fill="#e64c3c"/><path id="Shape" d="m24.45 35.89c-2.48 2.37-6.51 6.19-10.78 7.44l-1.88-1.88-2.74-2.73-4.28-4.28s-1.32-9.24 3.96-14.52c2.92-2.91 4.45-1.23 5.18 1.05-.5411355.6063376-1.0139755 1.2703257-1.41 1.98-2.61 4.55-.59 8.84 2.82 11.31 2.71 1.96 6.3 2.77 9.13 1.63z" fill="#c03a2b"/><path id="Shape" d="m6.86 41.99c-.3943361.3867403-1.0256639.3867403-1.42 0l-4.1-4.1c-.01-.01-.01-.01-.01-.02l1.41-1.41.02.02 4.1 4.1c.38772359.3900375.38772359 1.0199625 0 1.41z" fill="#f9eab0"/><path id="Shape" d="m57.44 41.27-6.17 6.16c-.3605175.3648401-.8520857.5701724-1.365.5701724s-1.0044825-.2053323-1.365-.5701724l-4.1-4.1 1.88-1.88 2.73-2.73 4.28-4.28.01-.01 4.1 4.1c.7497868.7594519.7497868 1.9805481 0 2.74z" fill="#3b97d3"/><path id="Shape" d="m42.78 34.26c-2.71 1.96-6.3 2.77-9.13 1.63-.7419955-.286473-1.4212517-.7144044-2-1.26-3.11-2.91-2.88-5.97-1.87-8.3.6716468-1.4780294 1.6223843-2.8124573 2.8-3.93 1.2864548-1.3462476 2.8349156-2.4148558 4.55-3.14 2.4715115-1.1019913 5.3752822-.3996648 7.07 1.71.5345603.6092757 1.0037902 1.2729008 1.4 1.98 2.61 4.55.59 8.84-2.82 11.31z" fill="#3b97d3"/><path id="Shape" d="m53.33 34.44-4.28 4.28-2.73 2.73-1.88 1.88c-4.28-1.25-8.31-5.07-10.79-7.44 2.83 1.14 6.42.33 9.13-1.63 3.41-2.47 5.43-6.76 2.82-11.31-.3962098-.7070992-.8654397-1.3707243-1.4-1.98.72-2.28 2.26-3.96 5.17-1.05 5.28 5.28 3.96 14.52 3.96 14.52z" fill="#2980ba"/><path id="Shape" d="m56.78 37.87-.02.02-4.1 4.1c-.1875741.1889094-.4438082.2935684-.71.29-.2632254.0033976-.5162972-.1014464-.7-.29-.3877236-.3900375-.3877236-1.0199625 0-1.41l4.1-4.1.02-.02z" fill="#f9eab0"/><path id="Shape" d="m15.974 25.94c-.3574397.0003485-.6878859-.1901128-.8667566-.4995777s-.1789635-.6908704-.0002434-1.0004223c1.038-1.808 2.13-2.688 3.339-2.688.4989627.0123557.9914343.1160696 1.453.306.3421876.1218978.5913625.4197692.6509015.7781078.059539.3583385-.0799225.720783-.3643051.9467873s-.6689573.2800214-1.0045964.1411049c-.2326968-.100965-.4816651-.1592269-.735-.172-.308 0-.892.443-1.6 1.684-.1786719.3127976-.511772.5053234-.872.504z" fill="#fff"/><g fill="#f0c419"><path id="Shape" d="m37.933 11.321c-.5966386.0010706-1.1916834-.0616186-1.775-.187-2.933-.634-5.335-2.849-7.158-6.592-1.823 3.743-4.225 5.956-7.158 6.592-5.786 1.251-11.316-4.195-11.549-4.427-.37925915-.39210934-.37428483-1.01582672.01118-1.40183719.3854649-.38601046 1.0091746-.39186697 1.40182-.01316281.05.05 4.992 4.913 9.719 3.886 2.757-.6 4.99-3.134 6.638-7.529.1458609-.39124017.5194545-.65067064.937-.65067064s.7911391.25943047.937.65067064c1.648 4.395 3.881 6.928 6.638 7.529 4.725 1.022 9.669-3.837 9.719-3.886.3926454-.37870416 1.0163551-.37284765 1.40182.01316281.3854648.38601047.3904391 1.00972785.01118 1.40183719-.207.209-4.679 4.614-9.774 4.614z"/><path id="Shape" d="m29 57.32c-.4171213.0002605-.7905905-.2584177-.937-.649-1.648-4.4-3.881-6.928-6.638-7.529-4.728-1.023-9.669 3.836-9.719 3.886-.3926454.3787042-1.0163551.3728476-1.40182-.0131628-.38546483-.3860105-.39043915-1.0097279-.01118-1.4018372.232-.233 5.763-5.68 11.549-4.427 2.933.636 5.335 2.849 7.158 6.591 1.823-3.742 4.225-5.955 7.158-6.591 5.787-1.251 11.317 4.2 11.549 4.427.3792591.3921093.3742848 1.0158267-.01118 1.4018372-.3854649.3860104-1.0091746.391867-1.40182.0131628-.05-.049-4.993-4.913-9.719-3.886-2.757.6-4.99 3.133-6.638 7.529-.1464095.3905823-.5198787.6492605-.937.649z"/></g></g></g></svg>