<?xml version="1.0" encoding="iso-8859-1"?>
<!-- Generator: Adobe Illustrator 19.0.0, SVG Export Plug-In . SVG Version: 6.00 Build 0)  -->
<svg version="1.1" id="Layer_1" xmlns="http://www.w3.org/2000/svg" xmlns:xlink="http://www.w3.org/1999/xlink" x="0px" y="0px"
	 viewBox="0 0 503.607 503.607" style="enable-background:new 0 0 503.607 503.607;" xml:space="preserve">
<g transform="translate(1 1)">
	<g>
		<g>
			<path d="M418.672,57.754h-75.541v-8.393c0-9.233-7.554-16.787-16.787-16.787h-25.18V24.18c0-14.269-10.911-25.18-25.18-25.18
				h-50.361c-14.269,0-25.18,10.911-25.18,25.18v8.393h-25.18c-9.233,0-16.787,7.554-16.787,16.787v8.393H82.934
				c-5.036,0-8.393,3.357-8.393,8.393v428.066c0,5.036,3.357,8.393,8.393,8.393h335.738c5.036,0,8.393-3.357,8.393-8.393V66.148
				C427.066,61.111,423.708,57.754,418.672,57.754z M368.311,376.705h-58.754c-5.036,0-8.393,3.357-8.393,8.393v58.754H133.295
				V108.115h25.18c0,9.233,7.554,16.787,16.787,16.787h151.082c9.233,0,16.787-7.554,16.787-16.787h25.18V376.705z M356.561,393.492
				l-38.61,38.61v-38.61H356.561z M175.262,49.361h33.574c5.036,0,8.393-3.357,8.393-8.393V24.18c0-5.036,3.357-8.393,8.393-8.393
				h50.361c5.036,0,8.393,3.357,8.393,8.393v16.787c0,5.036,3.357,8.393,8.393,8.393h33.574v16.787v33.574v8.393H175.262v-8.393
				V66.148V49.361z M410.279,485.82H91.328V74.541h67.148v16.787h-33.574c-5.036,0-8.393,3.357-8.393,8.393v352.525
				c0,5.036,3.357,8.393,8.393,8.393h184.656c3.343,0,5.939-1.486,7.312-3.954l64.275-64.275c2.021-1.124,3.383-3.067,3.809-5.571
				c0.16-0.714,0.211-1.45,0.146-2.199V99.721c0-5.036-3.357-8.393-8.393-8.393h-33.574V74.541h67.148V485.82z"/>
			<path d="M217.229,150.082h-50.361c-5.036,0-8.393,3.357-8.393,8.393v50.361c0,5.036,3.357,8.393,8.393,8.393h50.361
				c5.036,0,8.393-3.357,8.393-8.393v-50.361C225.623,153.439,222.266,150.082,217.229,150.082z M208.836,200.443h-33.574v-33.574
				h33.574V200.443z"/>
			<path d="M217.229,242.41h-50.361c-5.036,0-8.393,3.357-8.393,8.393v50.361c0,5.036,3.357,8.393,8.393,8.393h50.361
				c5.036,0,8.393-3.357,8.393-8.393v-50.361C225.623,245.767,222.266,242.41,217.229,242.41z M208.836,292.771h-33.574v-33.574
				h33.574V292.771z"/>
			<path d="M217.229,334.738h-50.361c-5.036,0-8.393,3.357-8.393,8.393v50.361c0,5.036,3.357,8.393,8.393,8.393h50.361
				c5.036,0,8.393-3.357,8.393-8.393v-50.361C225.623,338.095,222.266,334.738,217.229,334.738z M208.836,385.098h-33.574v-33.574
				h33.574V385.098z"/>
			<path d="M334.738,150.082h-75.541c-5.036,0-8.393,3.357-8.393,8.393s3.357,8.393,8.393,8.393h75.541
				c5.036,0,8.393-3.357,8.393-8.393S339.774,150.082,334.738,150.082z"/>
			<path d="M259.197,208.836h50.361c5.036,0,8.393-3.357,8.393-8.393s-3.357-8.393-8.393-8.393h-50.361
				c-5.036,0-8.393,3.357-8.393,8.393S254.161,208.836,259.197,208.836z"/>
			<path d="M334.738,242.41h-75.541c-5.036,0-8.393,3.357-8.393,8.393s3.357,8.393,8.393,8.393h75.541
				c5.036,0,8.393-3.357,8.393-8.393S339.774,242.41,334.738,242.41z"/>
			<path d="M259.197,301.164h50.361c5.036,0,8.393-3.357,8.393-8.393c0-5.036-3.357-8.393-8.393-8.393h-50.361
				c-5.036,0-8.393,3.357-8.393,8.393C250.803,297.807,254.161,301.164,259.197,301.164z"/>
			<path d="M334.738,343.131h-75.541c-5.036,0-8.393,3.357-8.393,8.393c0,5.036,3.357,8.393,8.393,8.393h75.541
				c5.036,0,8.393-3.357,8.393-8.393C343.131,346.489,339.774,343.131,334.738,343.131z"/>
			<path d="M275.984,385.098h-16.787c-5.036,0-8.393,3.357-8.393,8.393c0,5.036,3.357,8.393,8.393,8.393h16.787
				c5.036,0,8.393-3.357,8.393-8.393C284.377,388.456,281.02,385.098,275.984,385.098z"/>
		</g>
	</g>
</g>
<g>
</g>
<g>
</g>
<g>
</g>
<g>
</g>
<g>
</g>
<g>
</g>
<g>
</g>
<g>
</g>
<g>
</g>
<g>
</g>
<g>
</g>
<g>
</g>
<g>
</g>
<g>
</g>
<g>
</g>
</svg>
