<?xml version="1.0" encoding="iso-8859-1"?>
<!-- Generator: Adobe Illustrator 19.0.0, SVG Export Plug-In . SVG Version: 6.00 Build 0)  -->
<svg version="1.1" id="Capa_1" xmlns="http://www.w3.org/2000/svg" xmlns:xlink="http://www.w3.org/1999/xlink" x="0px" y="0px"
	 viewBox="0 0 512 512" style="enable-background:new 0 0 512 512;" xml:space="preserve">
<g>
	<path style="fill:#53BDAD;" d="M26.483,0h459.034C500.143,0,512,11.857,512,26.483v459.034C512,500.143,500.143,512,485.517,512
		H26.483C11.857,512,0,500.143,0,485.517V26.483C0,11.857,11.857,0,26.483,0z"/>
	<path style="fill:#ED634C;" d="M388.414,353.298V512H123.586V353.298c0.001-1.866,0.353-3.715,1.036-5.451l114.87-293.081
		c2.943-6.473,9.397-10.628,16.508-10.628c7.11,0,13.565,4.155,16.508,10.628l114.87,293.081
		C388.061,349.584,388.412,351.432,388.414,353.298z"/>
	<path style="fill:#CD4F38;" d="M388.414,367.669V512h-79.448V367.581c0-5.738,0.177-11.476,0.53-17.126
		c1.677-25.688,7.945-48.375,25.953-48.375c18.008,0,42.108,22.687,50.141,48.375C387.435,356.008,388.388,361.818,388.414,367.669z
		"/>
	<path style="fill:#FAEDBD;" d="M388.414,353.28v14.389c-0.026-5.851-0.979-11.661-2.825-17.214
		c-8.033-25.688-32.132-48.375-50.141-48.375c-18.008,0-24.276,22.687-25.953,48.375c-0.353,5.65-0.53,11.388-0.53,17.126v11.211
		c0.027-9.568-1.22-19.097-3.708-28.337C297.49,322.03,278.334,302.08,256,302.08s-41.49,19.95-49.258,48.375
		c-2.488,9.239-3.735,18.768-3.708,28.337v-12.535c0-5.297-0.177-10.593-0.53-15.801c-1.677-25.688-7.945-48.375-25.953-48.375
		s-42.108,22.687-50.141,48.375c-1.845,5.522-2.799,11.303-2.825,17.126V353.28c0.001-1.875,0.361-3.733,1.059-5.473l81.214-207.272
		h100.281l81.214,207.272C388.053,349.547,388.413,351.405,388.414,353.28L388.414,353.28z"/>
	<path style="fill:#3A3E48;" d="M306.141,140.535H205.859l33.633-85.804C242.45,48.276,248.9,44.137,256,44.137
		c7.1,0,13.55,4.139,16.508,10.594L306.141,140.535z"/>
	<path style="fill:#CD4F38;" d="M203.034,366.257V512h-79.448V367.581c0.026-5.822,0.98-11.603,2.825-17.126
		c8.033-25.688,32.132-48.375,50.141-48.375s24.276,22.687,25.953,48.375C202.858,355.663,203.034,360.96,203.034,366.257z"/>
</g>
<g>
</g>
<g>
</g>
<g>
</g>
<g>
</g>
<g>
</g>
<g>
</g>
<g>
</g>
<g>
</g>
<g>
</g>
<g>
</g>
<g>
</g>
<g>
</g>
<g>
</g>
<g>
</g>
<g>
</g>
</svg>
