<?xml version="1.0" encoding="iso-8859-1"?>
<!-- Generator: Adobe Illustrator 19.0.0, SVG Export Plug-In . SVG Version: 6.00 Build 0)  -->
<svg version="1.1" id="Layer_1" xmlns="http://www.w3.org/2000/svg" xmlns:xlink="http://www.w3.org/1999/xlink" x="0px" y="0px"
	 viewBox="0 0 512.002 512.002" style="enable-background:new 0 0 512.002 512.002;" xml:space="preserve">
<path style="fill:#8697CB;" d="M52.967,211.864c-2.26,0-4.52-0.865-6.241-2.586c-3.452-3.452-3.452-9.031,0-12.482L240.932,2.589
	c3.452-3.452,9.031-3.452,12.482,0c3.452,3.452,3.452,9.031,0,12.482L59.208,209.278C57.486,210.999,55.226,211.864,52.967,211.864"
	/>
<path style="fill:#E22539;" d="M464.473,476.692H47.529c-26.253,0-47.528-21.275-47.528-47.528V241.737
	c0-26.253,21.274-47.528,47.528-47.528h416.945c26.244,0,47.528,21.274,47.528,47.528v187.427
	C512.001,455.417,490.718,476.692,464.473,476.692"/>
<g>
	<path style="fill:#333750;" d="M123.587,512.002H70.622c-4.873,0-8.828-3.955-8.828-8.828v-26.483h70.621v26.483
		C132.415,508.047,128.46,512.002,123.587,512.002"/>
	<path style="fill:#333750;" d="M441.363,512.002h-52.921c-4.891,0-8.854-3.964-8.854-8.845v-26.465h70.621v26.465
		C450.208,508.039,446.253,512.002,441.363,512.002"/>
</g>
<g>
	<polygon style="fill:#FFFFFF;" points="52.967,300.14 459.415,300.14 459.415,229.519 52.967,229.519 	"/>
	<path style="fill:#FFFFFF;" d="M459.036,388.416c0,29.255-23.711,52.966-52.966,52.966s-52.966-23.711-52.966-52.966
		s23.711-52.966,52.966-52.966S459.036,359.161,459.036,388.416"/>
	<path style="fill:#FFFFFF;" d="M256.001,397.244H52.967c-4.873,0-8.828-3.955-8.828-8.828s3.955-8.828,8.828-8.828h203.034
		c4.873,0,8.828,3.955,8.828,8.828S260.874,397.244,256.001,397.244"/>
	<path style="fill:#FFFFFF;" d="M97.105,414.899c-4.873,0-8.828-3.955-8.828-8.828v-35.31c0-4.873,3.955-8.828,8.828-8.828
		s8.828,3.955,8.828,8.828v35.31C105.932,410.944,101.977,414.899,97.105,414.899"/>
</g>
<path style="fill:#333750;" d="M455.955,194.209c-7.283-20.559-26.836-35.31-49.885-35.31c-23.058,0-42.611,14.751-49.885,35.31
	H455.955z"/>
<g>
	<path style="fill:#8697CB;" d="M353.961,379.156c0.706,0.185,1.395,0.433,2.163,0.433h99.893c0.759,0,1.448-0.247,2.154-0.433
		c-1.095-6.179-3.249-11.979-6.285-17.223h-91.639C357.209,367.177,355.055,372.977,353.961,379.156"/>
	<path style="fill:#8697CB;" d="M353.961,397.685c1.095,6.179,3.249,11.979,6.285,17.223h91.639
		c3.037-5.244,5.191-11.043,6.285-17.223c-0.706-0.185-1.395-0.433-2.154-0.433h-99.893
		C355.356,397.252,354.667,397.5,353.961,397.685"/>
	<path style="fill:#8697CB;" d="M406.07,256.002c-4.873,0-8.828,3.955-8.828,8.828v35.31h17.655v-35.31
		C414.898,259.957,410.943,256.002,406.07,256.002"/>
	<path style="fill:#8697CB;" d="M361.932,264.83c-4.873,0-8.828,3.955-8.828,8.828v26.483h17.655v-26.483
		C370.76,268.785,366.805,264.83,361.932,264.83"/>
	<path style="fill:#8697CB;" d="M317.794,256.002c-4.873,0-8.828,3.955-8.828,8.828v35.31h17.655v-35.31
		C326.622,259.957,322.667,256.002,317.794,256.002"/>
	<path style="fill:#8697CB;" d="M273.656,264.83c-4.873,0-8.828,3.955-8.828,8.828v26.483h17.655v-26.483
		C282.484,268.785,278.529,264.83,273.656,264.83"/>
	<path style="fill:#8697CB;" d="M229.518,256.002c-4.873,0-8.828,3.955-8.828,8.828v35.31h17.655v-35.31
		C238.346,259.957,234.391,256.002,229.518,256.002"/>
	<path style="fill:#8697CB;" d="M185.38,264.83c-4.873,0-8.828,3.955-8.828,8.828v26.483h17.655v-26.483
		C194.208,268.785,190.253,264.83,185.38,264.83"/>
	<path style="fill:#8697CB;" d="M141.242,256.002c-4.873,0-8.828,3.955-8.828,8.828v35.31h17.655v-35.31
		C150.07,259.957,146.115,256.002,141.242,256.002"/>
	<path style="fill:#8697CB;" d="M97.105,264.83c-4.873,0-8.828,3.955-8.828,8.828v26.483h17.655v-26.483
		C105.932,268.785,101.977,264.83,97.105,264.83"/>
</g>
<g>
</g>
<g>
</g>
<g>
</g>
<g>
</g>
<g>
</g>
<g>
</g>
<g>
</g>
<g>
</g>
<g>
</g>
<g>
</g>
<g>
</g>
<g>
</g>
<g>
</g>
<g>
</g>
<g>
</g>
</svg>
