<?xml version="1.0" encoding="iso-8859-1"?>
<!-- Generator: Adobe Illustrator 19.0.0, SVG Export Plug-In . SVG Version: 6.00 Build 0)  -->
<svg version="1.1" id="Capa_1" xmlns="http://www.w3.org/2000/svg" xmlns:xlink="http://www.w3.org/1999/xlink" x="0px" y="0px"
	 viewBox="0 0 512 512" style="enable-background:new 0 0 512 512;" xml:space="preserve">
<g>
	<circle style="fill:#3A3E48;" cx="256" cy="256" r="256"/>
	<circle style="fill:#FF6C77;" cx="256" cy="185.379" r="97.103"/>
	<circle style="fill:#F4CD1E;" cx="185.379" cy="300.138" r="97.103"/>
	<circle style="fill:#5496CE;" cx="326.621" cy="300.138" r="97.103"/>
	<path style="fill:#ED634C;" d="M256,233.49c-12.135,12.795-20.531,28.671-24.276,45.903c-35.493-9.118-62.815-37.465-70.621-73.269
		C195.359,197.268,231.72,207.754,256,233.49L256,233.49z"/>
	<path style="fill:#9C63AD;" d="M350.897,206.124c-7.806,35.804-35.128,64.151-70.621,73.269
		c-3.745-17.232-12.141-33.108-24.276-45.903C280.28,207.754,316.641,197.268,350.897,206.124L350.897,206.124z"/>
	<path style="fill:#6D5A61;" d="M280.276,279.393c-15.922,4.12-32.63,4.12-48.552,0c3.745-17.232,12.141-33.108,24.276-45.903
		C268.135,246.285,276.531,262.161,280.276,279.393L280.276,279.393z"/>
	<path style="fill:#5D9069;" d="M282.483,300.138c0.03,24.787-9.449,48.641-26.483,66.648
		c-17.034-18.007-26.512-41.861-26.483-66.648c0.012-6.973,0.752-13.925,2.207-20.745c15.922,4.12,32.63,4.12,48.552,0
		C281.731,286.213,282.47,293.165,282.483,300.138L282.483,300.138z"/>
</g>
<g>
</g>
<g>
</g>
<g>
</g>
<g>
</g>
<g>
</g>
<g>
</g>
<g>
</g>
<g>
</g>
<g>
</g>
<g>
</g>
<g>
</g>
<g>
</g>
<g>
</g>
<g>
</g>
<g>
</g>
</svg>
